<svg width="95" height="25" viewBox="0 0 95 25" fill="none" xmlns="http://www.w3.org/2000/svg">
<path d="M10.9608 1.5625H15.5816L26.614 24.6094H20.3098L18.1248 19.7266H8.27435L6.16099 24.6094H0L10.9608 1.5625ZM13.11 8.26823L10.0295 15.4297H16.2263L13.11 8.26823Z" fill="#01996D"/>
<path d="M28.5559 0H33.9288V24.6094H28.5559V0Z" fill="#01996D"/>
<path d="M37.8606 8.78906H43.2335V24.6094H37.8606V8.78906ZM37.4307 3.80859C37.4307 3.02734 37.7292 2.36545 38.3262 1.82292C38.9471 1.25868 39.6874 0.976563 40.5471 0.976563C41.4067 0.976563 42.1351 1.25868 42.7321 1.82292C43.3529 2.36545 43.6634 3.02734 43.6634 3.80859C43.6634 4.58984 43.3529 5.26259 42.7321 5.82682C42.1351 6.36936 41.4067 6.64062 40.5471 6.64062C39.6874 6.64062 38.9471 6.36936 38.3262 5.82682C37.7292 5.26259 37.4307 4.58984 37.4307 3.80859Z" fill="#01996D"/>
<path d="M45.2669 8.78906H51.0697L55.4755 19.5312H55.5471L59.6306 8.78906H65.0393L58.162 24.6094H52.4666L45.2669 8.78906Z" fill="#01996D"/>
<path d="M67.069 8.78906H72.442V24.6094H67.069V8.78906ZM66.6392 3.80859C66.6392 3.02734 66.9377 2.36545 67.5347 1.82292C68.1556 1.25868 68.8958 0.976563 69.7555 0.976563C70.6152 0.976563 71.3435 1.25868 71.9405 1.82292C72.5614 2.36545 72.8718 3.02734 72.8718 3.80859C72.8718 4.58984 72.5614 5.26259 71.9405 5.82682C71.3435 6.36936 70.6152 6.64062 69.7555 6.64062C68.8958 6.64062 68.1556 6.36936 67.5347 5.82682C66.9377 5.26259 66.6392 4.58984 66.6392 3.80859Z" fill="#01996D"/>
<path d="M75.6574 16.6992C75.6574 15.4405 75.9081 14.3012 76.4096 13.2812C76.9111 12.2613 77.5916 11.3932 78.4513 10.6771C79.3348 9.93924 80.3617 9.375 81.5318 8.98437C82.7258 8.59375 83.9914 8.39844 85.3287 8.39844C86.666 8.39844 87.9196 8.59375 89.0898 8.98437C90.2837 9.375 91.3106 9.93924 92.1702 10.6771C93.0538 11.3932 93.7463 12.2613 94.2478 13.2812C94.7493 14.3012 95 15.4405 95 16.6992C95 17.9579 94.7493 19.0972 94.2478 20.1172C93.7463 21.1372 93.0538 22.0161 92.1702 22.7539C91.3106 23.4701 90.2837 24.0234 89.0898 24.4141C87.9196 24.8047 86.666 25 85.3287 25C83.9914 25 82.7258 24.8047 81.5318 24.4141C80.3617 24.0234 79.3348 23.4701 78.4513 22.7539C77.5916 22.0161 76.9111 21.1372 76.4096 20.1172C75.9081 19.0972 75.6574 17.9579 75.6574 16.6992ZM81.0303 16.6992C81.0303 17.8928 81.4005 18.8585 82.1407 19.5964C82.9049 20.3342 83.9675 20.7031 85.3287 20.7031C86.6898 20.7031 87.7405 20.3342 88.4808 19.5964C89.245 18.8585 89.627 17.8928 89.627 16.6992C89.627 15.5056 89.245 14.5399 88.4808 13.8021C87.7405 13.0642 86.6898 12.6953 85.3287 12.6953C83.9675 12.6953 82.9049 13.0642 82.1407 13.8021C81.4005 14.5399 81.0303 15.5056 81.0303 16.6992Z" fill="#01996D"/>
</svg>
